<svg version="1.1" id="Layer_1" xmlns="http://www.w3.org/2000/svg" xmlns:xlink="http://www.w3.org/1999/xlink" x="0px" y="0px"
	 width="100%" viewBox="0 0 160 160" enable-background="new 0 0 160 160" xml:space="preserve">
<path fill="#000000" opacity="1.000000" stroke="none" 
	d="
M87.000000,161.000000 
	C58.000004,161.000000 29.500008,161.000000 1.000008,161.000000 
	C1.000005,107.666679 1.000005,54.333351 1.000003,1.000022 
	C54.333317,1.000015 107.666634,1.000015 160.999969,1.000007 
	C160.999969,54.333313 160.999969,107.666626 160.999985,160.999969 
	C136.500000,161.000000 112.000000,161.000000 87.000000,161.000000 
M104.600754,144.087708 
	C122.894028,135.715012 133.334702,120.752670 140.271408,101.999878 
	C137.829300,101.999878 136.006332,102.080841 134.193863,101.977669 
	C132.284668,101.868996 130.385483,101.584396 128.481949,101.375885 
	C125.255249,110.420815 120.788780,111.649521 114.399887,104.784920 
	C108.441238,98.382607 101.462280,93.594482 93.495689,90.285576 
	C90.090050,88.871040 89.099701,86.968925 88.800278,83.321869 
	C88.453224,79.094589 86.591225,74.991684 84.963074,69.372108 
	C89.527100,66.689476 94.843300,62.829082 100.729012,60.287636 
	C108.443176,56.956673 116.133926,57.419743 123.945183,61.669449 
	C128.441681,64.115768 134.064011,65.335304 140.007584,62.998390 
	C137.903412,58.505257 136.162445,54.164589 133.911865,50.106552 
	C128.574905,40.483395 121.285858,32.599392 112.058167,26.524094 
	C99.692543,18.382853 86.164497,15.518250 71.395691,15.819455 
	C56.587433,16.121466 43.775238,20.438606 31.980143,29.352446 
	C9.555746,46.299103 2.393090,69.581406 6.443671,95.779831 
	C9.871505,117.950424 23.239666,134.518509 43.630028,144.961700 
	C55.722874,151.155197 68.656509,152.132736 81.634285,150.755035 
	C89.219223,149.949829 96.544739,146.701004 104.600754,144.087708 
M154.020889,66.467407 
	C154.628281,64.545441 155.235657,62.623478 155.843033,60.701515 
	C146.890884,66.831291 138.741989,70.086136 128.139145,68.266586 
	C117.382240,66.420601 106.935799,68.908913 97.703300,76.989151 
	C99.483910,76.989151 100.581886,77.284447 101.421982,76.943787 
	C110.519012,73.254959 119.419601,75.571152 128.179031,78.029068 
	C138.846268,81.022324 148.224396,76.841583 154.020889,66.467407 
M129.207443,95.697212 
	C134.507080,95.796471 139.825348,96.210861 145.100677,95.899048 
	C149.629990,95.631332 155.582916,89.001907 155.420349,84.787994 
	C147.721283,89.278793 139.826447,88.615837 131.725021,86.397278 
	C122.594276,83.896820 113.549057,83.507088 103.861656,89.839424 
	C113.317184,89.899681 121.647491,89.856194 129.207443,95.697212 
z"/>
<path fill="#FC0309" opacity="1.000000" stroke="none" 
	d="
M104.293861,144.319611 
	C96.544739,146.701004 89.219223,149.949829 81.634285,150.755035 
	C68.656509,152.132736 55.722874,151.155197 43.630028,144.961700 
	C23.239666,134.518509 9.871505,117.950424 6.443671,95.779831 
	C2.393090,69.581406 9.555746,46.299103 31.980143,29.352446 
	C43.775238,20.438606 56.587433,16.121466 71.395691,15.819455 
	C86.164497,15.518250 99.692543,18.382853 112.058167,26.524094 
	C121.285858,32.599392 128.574905,40.483395 133.911865,50.106552 
	C136.162445,54.164589 137.903412,58.505257 140.007584,62.998390 
	C134.064011,65.335304 128.441681,64.115768 123.945183,61.669449 
	C116.133926,57.419743 108.443176,56.956673 100.729012,60.287636 
	C94.843300,62.829082 89.527100,66.689476 84.963074,69.372108 
	C86.591225,74.991684 88.453224,79.094589 88.800278,83.321869 
	C89.099701,86.968925 90.090050,88.871040 93.495689,90.285576 
	C101.462280,93.594482 108.441238,98.382607 114.399887,104.784920 
	C120.788780,111.649521 125.255249,110.420815 128.481934,101.376274 
	C130.385483,101.584396 132.284668,101.868996 134.193863,101.977669 
	C136.006332,102.080841 137.829300,101.999878 140.271408,101.999878 
	C133.334702,120.752670 122.894028,135.715012 104.293861,144.319611 
M77.068047,63.817921 
	C81.291824,54.013771 87.916267,45.923077 95.193520,38.277657 
	C99.211060,34.056862 97.893311,30.693338 92.243317,28.893332 
	C82.282623,25.719995 72.326294,26.439075 62.705620,29.355724 
	C55.974834,31.396257 49.471157,35.464314 48.234013,43.151268 
	C46.946159,51.153316 49.877361,58.758801 54.751247,65.064880 
	C59.818710,71.621429 60.179600,71.293419 67.737282,68.714737 
	C69.876854,67.984718 72.180008,67.716042 74.287231,66.916954 
	C75.330444,66.521347 76.099098,65.401726 77.068047,63.817921 
M53.543110,78.988609 
	C44.075348,75.252220 36.343967,69.103119 29.326979,61.865398 
	C27.787315,60.277298 25.335835,58.132286 23.722279,58.439476 
	C21.906937,58.785080 19.891819,61.365757 19.131615,63.408779 
	C15.570533,72.979103 16.510605,82.695084 18.728086,92.455185 
	C19.926783,97.731186 21.918852,102.377632 26.829130,104.987839 
	C38.073673,110.965179 53.026848,104.844139 59.905487,96.289970 
	C58.798313,92.798126 58.486626,89.529640 56.836620,87.215294 
	C54.960396,84.583672 58.847618,80.504677 53.543110,78.988609 
M96.099220,117.309105 
	C95.636848,108.391205 89.927719,102.391022 84.899879,96.685387 
	C80.460831,98.183937 76.307930,99.497375 72.228638,101.009384 
	C70.733360,101.563599 68.888336,102.248421 68.104042,103.458000 
	C64.952034,108.319244 62.470741,113.635162 59.124134,118.344246 
	C56.380539,122.204834 52.777176,125.457672 49.526852,128.953796 
	C47.170956,131.487854 47.086517,134.157379 49.821400,136.174820 
	C51.683891,137.548721 54.093384,138.364090 56.381207,138.945572 
	C64.700684,141.060135 72.910767,139.634857 81.150002,138.036713 
	C90.360626,136.250168 97.827461,126.766579 96.099220,117.309105 
M79.949730,82.036324 
	C78.428986,80.632492 77.036278,79.047699 75.360977,77.862282 
	C71.808418,75.348549 68.922081,77.833496 66.777771,80.012070 
	C64.846733,81.973953 64.829712,84.823143 66.741638,87.466621 
	C68.905754,90.458794 71.789589,91.887863 75.091843,90.782639 
	C78.538261,89.629158 80.644608,86.900360 79.949730,82.036324 
z"/>
<path fill="#2D8FFE" opacity="1.000000" stroke="none" 
	d="
M153.767624,66.737343 
	C148.224396,76.841583 138.846268,81.022324 128.179031,78.029068 
	C119.419601,75.571152 110.519012,73.254959 101.421982,76.943787 
	C100.581886,77.284447 99.483910,76.989151 97.703300,76.989151 
	C106.935799,68.908913 117.382240,66.420601 128.139145,68.266586 
	C138.741989,70.086136 146.890884,66.831291 155.843033,60.701515 
	C155.235657,62.623478 154.628281,64.545441 153.767624,66.737343 
z"/>
<path fill="#2D8FFE" opacity="1.000000" stroke="none" 
	d="
M128.908081,95.421570 
	C121.647491,89.856194 113.317184,89.899681 103.861656,89.839424 
	C113.549057,83.507088 122.594276,83.896820 131.725021,86.397278 
	C139.826447,88.615837 147.721283,89.278793 155.420349,84.787994 
	C155.582916,89.001907 149.629990,95.631332 145.100677,95.899048 
	C139.825348,96.210861 134.507080,95.796471 128.908081,95.421570 
z"/>
<path fill="#000000" opacity="1.000000" stroke="none" 
	d="
M77.030014,64.213799 
	C76.099098,65.401726 75.330444,66.521347 74.287231,66.916954 
	C72.180008,67.716042 69.876854,67.984718 67.737282,68.714737 
	C60.179600,71.293419 59.818710,71.621429 54.751247,65.064880 
	C49.877361,58.758801 46.946159,51.153316 48.234013,43.151268 
	C49.471157,35.464314 55.974834,31.396257 62.705620,29.355724 
	C72.326294,26.439075 82.282623,25.719995 92.243317,28.893332 
	C97.893311,30.693338 99.211060,34.056862 95.193520,38.277657 
	C87.916267,45.923077 81.291824,54.013771 77.030014,64.213799 
z"/>
<path fill="#000000" opacity="1.000000" stroke="none" 
	d="
M53.930298,78.998642 
	C58.847618,80.504677 54.960396,84.583672 56.836620,87.215294 
	C58.486626,89.529640 58.798313,92.798126 59.905487,96.289970 
	C53.026848,104.844139 38.073673,110.965179 26.829130,104.987839 
	C21.918852,102.377632 19.926783,97.731186 18.728086,92.455185 
	C16.510605,82.695084 15.570533,72.979103 19.131615,63.408779 
	C19.891819,61.365757 21.906937,58.785080 23.722279,58.439476 
	C25.335835,58.132286 27.787315,60.277298 29.326979,61.865398 
	C36.343967,69.103119 44.075348,75.252220 53.930298,78.998642 
z"/>
<path fill="#000000" opacity="1.000000" stroke="none" 
	d="
M96.320023,117.675865 
	C97.827461,126.766579 90.360626,136.250168 81.150002,138.036713 
	C72.910767,139.634857 64.700684,141.060135 56.381207,138.945572 
	C54.093384,138.364090 51.683891,137.548721 49.821400,136.174820 
	C47.086517,134.157379 47.170956,131.487854 49.526852,128.953796 
	C52.777176,125.457672 56.380539,122.204834 59.124134,118.344246 
	C62.470741,113.635162 64.952034,108.319244 68.104042,103.458000 
	C68.888336,102.248421 70.733360,101.563599 72.228638,101.009384 
	C76.307930,99.497375 80.460831,98.183937 84.899879,96.685387 
	C89.927719,102.391022 95.636848,108.391205 96.320023,117.675865 
z"/>
<path fill="#000000" opacity="1.000000" stroke="none" 
	d="
M79.970467,82.439857 
	C80.644608,86.900360 78.538261,89.629158 75.091843,90.782639 
	C71.789589,91.887863 68.905754,90.458794 66.741638,87.466621 
	C64.829712,84.823143 64.846733,81.973953 66.777771,80.012070 
	C68.922081,77.833496 71.808418,75.348549 75.360977,77.862282 
	C77.036278,79.047699 78.428986,80.632492 79.970467,82.439857 
z"/>
</svg>